<?xml version="1.0" encoding="utf-8"?>
<!-- Generator: Adobe Illustrator 16.0.4, SVG Export Plug-In . SVG Version: 6.00 Build 0)  -->
<!DOCTYPE svg PUBLIC "-//W3C//DTD SVG 1.1//EN" "http://www.w3.org/Graphics/SVG/1.1/DTD/svg11.dtd">
<svg version="1.1" id="Layer_1" xmlns="http://www.w3.org/2000/svg" xmlns:xlink="http://www.w3.org/1999/xlink" x="0px" y="0px"
	 width="595.279px" height="841.891px" viewBox="0 0 595.279 841.891" enable-background="new 0 0 595.279 841.891"
	 xml:space="preserve">
<symbol  id="New_Symbol_1" viewBox="-119.5 -14.851 239 29.7">
	<g>
		<path fill="#F4F5F5" d="M-114.9,6.149h-4.6v8.1h4.6v-1.1h-3.3v-2.2h3.1v-1.1h-3.1V7.249h3.3V6.149z"/>
		<path fill="#F4F5F5" d="M-111.9,6.149h-1.3v8.7h1.3V6.149z"/>
		<path fill="#F4F5F5" d="M-107.4,6.049c-1,0-1.7,0.301-2.2,0.801c-0.5,0.6-0.8,1.3-0.8,2.3s0.3,1.8,0.8,2.399
			c0.5,0.601,1.2,0.9,2.1,0.9c0.8,0,1.5-0.2,1.9-0.7c0.5-0.5,0.7-1.2,0.7-2v-0.8h-4.1c0-0.6,0.2-1.1,0.5-1.4
			c0.3-0.3,0.7-0.5,1.3-0.5c0.4,0,0.7,0,1,0.101c0.3,0.1,0.7,0.2,1,0.3v-1c-0.3-0.2-0.6-0.3-1-0.3
			C-106.6,6.049-106.9,6.049-107.4,6.049z M-107.6,11.449c-0.4,0-0.8-0.1-1-0.4c-0.3-0.3-0.4-0.6-0.4-1.199h2.8
			c0,0.5-0.1,0.899-0.4,1.199C-106.9,11.249-107.2,11.449-107.6,11.449z"/>
		<path fill="#F4F5F5" d="M-102.2,9.35l0.7,0.899l1.9,2h1.5l-2.5-2.6l2.6-3.5h-1.5l-2,2.7l-0.7-0.601v-2.1h-1.3v8.7h1.3v-4.2V9.35
			L-102.2,9.35z"/>
		<path fill="#F4F5F5" d="M-94.6,7.049c0.3,0,0.6,0,1,0.2v-1c-0.1-0.1-0.3-0.1-0.6-0.2c-0.2,0-0.5-0.1-0.7-0.1c-1.2,0-1.9,0.7-1.9,2
			v3.3h-0.8v0.601l0.9,0.5l0.4,1.3h0.8v-1.4h1.8v-1h-1.8v-3.3c0-0.3,0.1-0.5,0.2-0.7C-95.1,7.149-94.9,7.049-94.6,7.049z"/>
		<path fill="#F4F5F5" d="M-89.3,12.35c0.3,0,0.5,0,0.7-0.101l-0.1-1.2c-0.2,0-0.4,0.101-0.6,0.101c-0.5,0-0.9-0.2-1.3-0.5
			c-0.3-0.3-0.5-0.8-0.5-1.3v-3.2h-1.3v6.2h1l0.2-1.101h0.1c0.2,0.4,0.5,0.7,0.8,0.9C-90.1,12.249-89.7,12.35-89.3,12.35z"/>
		<path fill="#F4F5F5" d="M-87.6,13.949c0,0.2,0.1,0.4,0.2,0.5s0.3,0.2,0.5,0.2c0.2,0,0.4-0.101,0.5-0.2s0.2-0.3,0.2-0.5
			s-0.1-0.4-0.2-0.5s-0.3-0.2-0.5-0.2c-0.2,0-0.4,0.101-0.5,0.2S-87.6,13.649-87.6,13.949z M-86.2,6.149h-1.3v6.2h1.3V6.149z"/>
		<path fill="#F4F5F5" d="M-83.1,9.35l0.7,0.899l1.9,2h1.5l-2.5-2.6l2.6-3.5h-1.5l-2,2.7l-0.7-0.601v-2.1h-1.3v8.7h1.3v-4.2V9.35
			L-83.1,9.35z"/>
		<path fill="#F4F5F5" d="M-75.4,8.649v1.1h2.9v-1.1H-75.4z"/>
		<path fill="#F4F5F5" d="M-63.5,6.149h-4.6v8.1h4.6v-1.1h-3.3v-2.2h3.1v-1.1h-3.1V7.249h3.3V6.149z"/>
		<path fill="#F4F5F5" d="M-60.5,6.149h-1.3v8.7h1.3V6.149z"/>
		<path fill="#F4F5F5" d="M-56,6.049c-1,0-1.7,0.301-2.2,0.801c-0.6,0.6-0.8,1.3-0.8,2.3s0.3,1.8,0.8,2.399
			c0.5,0.601,1.2,0.9,2.1,0.9c0.8,0,1.5-0.2,1.9-0.7c0.5-0.5,0.7-1.2,0.7-2v-0.8h-4.1c0-0.6,0.2-1.1,0.5-1.4
			c0.3-0.3,0.7-0.5,1.3-0.5c0.4,0,0.7,0,1,0.101c0.3,0.1,0.7,0.2,1,0.3v-1c-0.3-0.2-0.6-0.3-1-0.3C-55.2,6.049-55.6,6.049-56,6.049z
			 M-56.2,11.449c-0.4,0-0.8-0.1-1-0.4c-0.3-0.3-0.4-0.6-0.4-1.199h2.8c0,0.5-0.1,0.899-0.4,1.199
			C-55.5,11.249-55.8,11.449-56.2,11.449z"/>
		<path fill="#F4F5F5" d="M-50.8,9.35l0.7,0.899l1.9,2h1.5l-2.5-2.6l2.6-3.5h-1.5l-2,2.7l-0.7-0.601v-2.1h-1.3v8.7h1.3v-4.2V9.35
			L-50.8,9.35z"/>
		<path fill="#F4F5F5" d="M-43.3,7.049c0.3,0,0.6,0,1,0.2v-1c-0.1-0.1-0.3-0.1-0.6-0.2c-0.2,0-0.5-0.1-0.7-0.1c-1.2,0-1.9,0.7-1.9,2
			v3.3h-0.8v0.601l0.9,0.5l0.4,1.3h0.8v-1.4h1.8v-1h-1.8v-3.3c0-0.3,0.1-0.5,0.2-0.7C-43.7,7.149-43.5,7.049-43.3,7.049z"/>
		<path fill="#F4F5F5" d="M-37.9,12.35c0.3,0,0.5,0,0.7-0.101l-0.1-1.2c-0.2,0-0.4,0.101-0.6,0.101c-0.5,0-0.9-0.2-1.3-0.5
			c-0.3-0.3-0.5-0.8-0.5-1.3v-3.2H-41v6.2h1l0.2-1.101h0.1c0.2,0.4,0.5,0.7,0.8,0.9C-38.7,12.249-38.3,12.35-37.9,12.35z"/>
		<path fill="#F4F5F5" d="M-30.7,9.249c0-1-0.3-1.8-0.8-2.399c-0.5-0.601-1.2-0.801-2.2-0.801c-0.6,0-1.1,0.101-1.5,0.4
			c-0.4,0.3-0.8,0.6-1,1.1c-0.2,0.5-0.4,1.101-0.4,1.7c0,1,0.3,1.8,0.8,2.3c0.5,0.601,1.2,0.801,2.2,0.801c0.9,0,1.6-0.301,2.1-0.9
			C-30.9,10.949-30.7,10.149-30.7,9.249z M-35.2,9.249c0-1.399,0.5-2.1,1.6-2.1c1,0,1.6,0.7,1.6,2.1c0,1.4-0.5,2.101-1.6,2.101
			c-0.6,0-0.9-0.2-1.2-0.5C-35,10.449-35.2,9.85-35.2,9.249z"/>
		<path fill="#F4F5F5" d="M-23.8,6.149h-1.3v3.8c0,0.5-0.1,0.8-0.3,1.1c-0.2,0.2-0.5,0.4-0.9,0.4c-0.6,0-1-0.2-1.2-0.5
			c-0.3-0.3-0.4-0.9-0.4-1.6v-3.2h-1.3v6.2h1l0.2-0.801h0.1c0.2,0.301,0.4,0.5,0.8,0.7c0.3,0.2,0.7,0.2,1.1,0.2
			c1.5,0,2.2-0.8,2.2-2.3V6.149z"/>
		<path fill="#F4F5F5" d="M-22,13.949c0,0.2,0.1,0.4,0.2,0.5c0.1,0.1,0.3,0.2,0.5,0.2c0.2,0,0.4-0.101,0.5-0.2
			c0.1-0.1,0.2-0.3,0.2-0.5s-0.1-0.4-0.2-0.5c-0.1-0.1-0.3-0.2-0.5-0.2c-0.2,0-0.4,0.101-0.5,0.2C-21.9,13.549-22,13.649-22,13.949z
			 M-20.6,6.149h-1.3v6.2h1.3V6.149z"/>
		<path fill="#F4F5F5" d="M-17.5,9.35l0.7,0.899l1.9,2h1.5l-2.5-2.6l2.6-3.5h-1.5l-2,2.7l-0.7-0.601v-2.1h-1.3v8.7h1.3v-4.2V9.35
			L-17.5,9.35z"/>
		<path fill="#F4F5F5" d="M-10.9,7.35c-0.2-0.7-0.5-1.601-1-2.7h-1c0.3,1,0.4,1.899,0.6,2.8h1.3L-10.9,7.35z"/>
		<path fill="#F4F5F5" d="M-6.1,14.249h2.4c1.1,0,1.9-0.2,2.4-0.5s0.8-0.8,0.8-1.5c0-0.5-0.1-0.899-0.4-1.2
			c-0.2-0.3-0.6-0.5-1.1-0.6v-0.1c0.6-0.101,1-0.301,1.3-0.601c0.3-0.3,0.4-0.7,0.4-1.3c0-0.7-0.3-1.3-0.8-1.7
			c-0.5-0.399-1.2-0.6-2.1-0.6h-2.9V14.249z M-4.7,10.949h1.3c0.6,0,1,0.1,1.2,0.3c0.3,0.2,0.4,0.5,0.4,0.9c0,0.399-0.1,0.7-0.4,0.8
			c-0.3,0.2-0.7,0.3-1.3,0.3h-1.2V10.949z M-4.7,9.85V7.249h1.4c0.6,0,1,0.101,1.3,0.3c0.3,0.2,0.4,0.601,0.4,1
			c0,0.4-0.1,0.7-0.4,0.9s-0.7,0.3-1.3,0.3h-1.4V9.85z"/>
		<path fill="#F4F5F5" d="M1.3,13.949c0,0.2,0.1,0.4,0.2,0.5s0.3,0.2,0.5,0.2s0.4-0.101,0.5-0.2s0.2-0.3,0.2-0.5s-0.1-0.4-0.2-0.5
			s-0.3-0.3-0.5-0.3s-0.4,0.1-0.5,0.2C1.4,13.449,1.3,13.649,1.3,13.949z M2.6,6.149H1.3v6.2h1.3V6.149z"/>
		<path fill="#F4F5F5" d="M5.8,6.149H4.5v8.7h1.3V6.149z"/>
		<path fill="#F4F5F5" d="M12.9,12.249v-0.7l-1.1-0.199c0.1-0.101,0.2-0.301,0.2-0.5c0.1-0.2,0.1-0.4,0.1-0.601
			c0-0.6-0.2-1.1-0.7-1.5c-0.5-0.399-1-0.5-1.8-0.5c-0.2,0-0.4,0-0.5,0c-0.2-0.1-0.3-0.3-0.3-0.6c0-0.101,0.1-0.2,0.2-0.3
			c0.1-0.101,0.4-0.101,0.7-0.101h1.1c0.7,0,1.2-0.1,1.5-0.399c0.4-0.301,0.5-0.7,0.5-1.301c0-0.699-0.3-1.199-0.9-1.6
			s-1.4-0.6-2.5-0.6c-0.8,0-1.4,0.199-1.8,0.5c-0.5,0.3-0.7,0.699-0.7,1.199c0,0.4,0.1,0.7,0.4,1c0.2,0.301,0.6,0.4,1,0.5
			c-0.2,0.101-0.4,0.2-0.5,0.4c-0.1,0.2-0.1,0.3-0.1,0.5s0.1,0.4,0.2,0.6c0.1,0.2,0.3,0.301,0.6,0.5C8.1,8.649,7.8,8.85,7.6,9.149
			c-0.2,0.3-0.3,0.7-0.3,1.1c0,0.7,0.2,1.2,0.6,1.601c0.4,0.399,1,0.6,1.8,0.6c0.2,0,0.4,0,0.5,0c0.2,0,0.3,0,0.4-0.1h2.3V12.249z
			 M8.1,5.149c0-0.3,0.1-0.5,0.4-0.7s0.6-0.2,1.1-0.2c0.7,0,1.2,0.101,1.6,0.3c0.3,0.2,0.5,0.5,0.5,0.801c0,0.3-0.1,0.5-0.3,0.6
			c-0.2,0.1-0.5,0.2-1.1,0.2h-1c-0.4,0-0.7-0.101-0.9-0.3C8.2,5.749,8.1,5.449,8.1,5.149z M8.6,10.249c0-0.399,0.1-0.7,0.3-0.899
			c0.2-0.2,0.5-0.301,0.9-0.301c0.8,0,1.1,0.4,1.1,1.2c0,0.4-0.1,0.7-0.3,0.9c-0.2,0.2-0.5,0.3-0.9,0.3c-0.4,0-0.7-0.1-0.9-0.3
			C8.7,11.049,8.6,10.749,8.6,10.249z"/>
		<path fill="#F4F5F5" d="M14,13.949c0,0.2,0.1,0.4,0.2,0.5c0.1,0.1,0.3,0.2,0.5,0.2c0.2,0,0.4-0.101,0.5-0.2
			c0.1-0.1,0.2-0.3,0.2-0.5s-0.1-0.4-0.2-0.5c-0.1-0.1-0.3-0.2-0.5-0.2c-0.2,0-0.4,0.101-0.5,0.2C14.1,13.549,14,13.649,14,13.949z
			 M15.4,6.149H14v6.2h1.3v-6.2H15.4z"/>
		<path fill="#F4F5F5" d="M21.4,7.85c0-0.601-0.2-1.101-0.7-1.4s-1.1-0.5-1.9-0.5c-0.8,0-1.5,0.1-2,0.4v1.1c0.7-0.3,1.4-0.5,2-0.5
			c0.8,0,1.2,0.2,1.2,0.7c0,0.2,0,0.3-0.1,0.399c-0.1,0.101-0.2,0.2-0.4,0.301c-0.2,0.1-0.5,0.199-0.9,0.399
			c-0.7,0.3-1.2,0.5-1.4,0.8c-0.2,0.301-0.4,0.601-0.4,1.101s0.2,0.899,0.6,1.2c0.4,0.3,1,0.399,1.7,0.399c0.7,0,1.4-0.1,2.1-0.399
			l-0.4-1c-0.7,0.3-1.2,0.399-1.7,0.399c-0.7,0-1-0.2-1-0.6c0-0.2,0.1-0.4,0.3-0.5c0.2-0.101,0.6-0.3,1.2-0.601
			c0.5-0.199,0.9-0.399,1.1-0.5c0.2-0.199,0.4-0.399,0.5-0.6C21.3,8.449,21.4,8.149,21.4,7.85z"/>
		<path fill="#F4F5F5" d="M26.6,6.149l-0.2,0.8l0,0c-0.3-0.4-0.6-0.6-0.9-0.8c-0.3-0.101-0.7-0.2-1.2-0.2c-0.6,0-1.1,0.2-1.4,0.5
			c-0.3,0.3-0.5,0.8-0.5,1.4c0,0.6,0.2,1.1,0.7,1.399s1.2,0.5,2.2,0.5h1.1v0.3c0,0.4-0.1,0.7-0.3,0.9c-0.2,0.2-0.5,0.3-0.9,0.3
			c-0.3,0-0.6,0-0.9-0.1c-0.3-0.101-0.6-0.2-0.8-0.3l-0.5,1c0.3,0.199,0.7,0.3,1.1,0.399c0.4,0.101,0.8,0.101,1.1,0.101
			c0.8,0,1.4-0.2,1.8-0.5c0.4-0.301,0.6-0.9,0.6-1.601v-4.1H26.6z M24.7,7.049c0.5,0,0.9,0.101,1.1,0.4c0.2,0.3,0.4,0.6,0.4,1.1v0.5
			h-0.8c-0.6,0-1.1-0.1-1.3-0.3c-0.3-0.2-0.4-0.5-0.4-0.8s0.1-0.5,0.2-0.6C24.1,7.049,24.4,7.049,24.7,7.049z"/>
		<path fill="#F4F5F5" d="M28.5,12.249h1.4l1.3-3.5c0.2-0.5,0.3-1,0.4-1.399l0,0c0,0.199,0.1,0.5,0.2,0.699
			c0.1,0.301,0.6,1.7,1.4,4.2h1.4l-2.6-7c-0.5-1.3-1.3-1.899-2.4-1.899c-0.3,0-0.6,0-0.8,0.1v1c0.2,0,0.4-0.1,0.7-0.1
			c0.6,0,1.1,0.399,1.3,1.1l0.2,0.6L28.5,12.249z"/>
		<path fill="#F4F5F5" d="M39.4,6.149l-0.3,0.8l0,0c-0.3-0.4-0.6-0.6-0.9-0.8c-0.3-0.101-0.7-0.2-1.2-0.2c-0.6,0-1.1,0.2-1.4,0.5
			c-0.3,0.3-0.5,0.8-0.5,1.4c0,0.6,0.2,1.1,0.7,1.399C36.3,9.649,37,9.85,38,9.85h1.1v0.3c0,0.399-0.1,0.7-0.3,0.899
			c-0.2,0.2-0.5,0.301-0.9,0.301c-0.3,0-0.6,0-0.9-0.101c-0.3-0.1-0.6-0.2-0.8-0.3l-0.4,0.9c0.3,0.199,0.7,0.3,1.1,0.399
			c0.4,0.101,0.8,0.101,1.1,0.101c0.8,0,1.4-0.2,1.8-0.5c0.4-0.301,0.6-0.9,0.6-1.601v-4.1H39.4z M37.4,7.049
			c0.5,0,0.9,0.101,1.1,0.4s0.5,0.6,0.5,1.1v0.5h-0.8c-0.6,0-1.1-0.1-1.3-0.3c-0.3-0.2-0.4-0.5-0.4-0.8s0.1-0.5,0.2-0.6
			C36.9,7.049,37.1,7.049,37.4,7.049z"/>
		<path fill="#F4F5F5" d="M45.3,12.35c0.3,0,0.5,0,0.7-0.101l-0.1-1.2c-0.2,0-0.4,0.101-0.6,0.101c-0.5,0-0.9-0.2-1.3-0.5
			c-0.3-0.3-0.5-0.8-0.5-1.3v-3.2h-1.3v6.2h1l0.2-1.101h0.1c0.2,0.4,0.5,0.7,0.8,0.9C44.5,12.249,44.9,12.35,45.3,12.35z"/>
		<path fill="#F4F5F5" d="M48.4,7.35c-0.2-0.7-0.5-1.601-1-2.7h-1c0.3,1,0.4,1.899,0.6,2.8h1.3L48.4,7.35z"/>
		<path fill="#F4F5F5" d="M53.2,14.249h2.4c1.1,0,1.9-0.2,2.4-0.5s0.8-0.8,0.8-1.5c0-0.5-0.1-0.899-0.4-1.2
			c-0.2-0.3-0.6-0.5-1.1-0.6v-0.1c0.6-0.101,1-0.301,1.3-0.601c0.3-0.3,0.4-0.7,0.4-1.3c0-0.7-0.3-1.3-0.8-1.7
			c-0.5-0.399-1.2-0.6-2.1-0.6h-2.9V14.249z M54.6,10.949h1.3c0.6,0,1,0.1,1.2,0.3c0.3,0.2,0.4,0.5,0.4,0.9c0,0.399-0.1,0.7-0.4,0.8
			c-0.3,0.2-0.7,0.3-1.3,0.3h-1.2V10.949z M54.6,9.85V7.249H56c0.6,0,1,0.101,1.3,0.3c0.3,0.2,0.4,0.601,0.4,1
			c0,0.4-0.1,0.7-0.4,0.9c-0.3,0.2-0.7,0.3-1.3,0.3h-1.4V9.85z"/>
		<path fill="#F4F5F5" d="M60.5,13.949c0,0.2,0.1,0.4,0.2,0.5c0.1,0.1,0.3,0.2,0.5,0.2c0.2,0,0.4-0.101,0.5-0.2
			c0.1-0.1,0.3-0.3,0.3-0.5s-0.1-0.4-0.2-0.5c-0.1-0.1-0.3-0.2-0.5-0.2c-0.2,0-0.4,0.101-0.5,0.2
			C60.7,13.549,60.5,13.649,60.5,13.949z M61.9,6.149h-1.3v6.2h1.3V6.149z"/>
		<path fill="#F4F5F5" d="M62.9,12.249h1.4l1.3-3.5c0.2-0.5,0.3-1,0.4-1.399l0,0c0,0.199,0.1,0.5,0.2,0.699
			c0.1,0.301,0.6,1.7,1.4,4.2H69l-2.6-7c-0.5-1.3-1.3-1.899-2.4-1.899c-0.3,0-0.6,0-0.8,0.1v1c0.2,0,0.4-0.1,0.7-0.1
			c0.6,0,1.1,0.399,1.3,1.1l0.2,0.6L62.9,12.249z"/>
		<path fill="#F4F5F5" d="M75.4,9.249c0-1-0.3-1.8-0.8-2.399c-0.5-0.601-1.2-0.801-2.2-0.801c-0.6,0-1.1,0.101-1.5,0.4
			s-0.8,0.6-1,1.1c-0.2,0.5-0.4,1.101-0.4,1.7c0,1,0.3,1.8,0.8,2.3c0.5,0.601,1.2,0.801,2.2,0.801c0.9,0,1.6-0.301,2.1-0.9
			C75.1,10.949,75.4,10.149,75.4,9.249z M70.9,9.249c0-1.399,0.5-2.1,1.6-2.1c1,0,1.6,0.7,1.6,2.1c0,1.4-0.5,2.101-1.6,2.101
			c-0.5,0-0.9-0.2-1.2-0.5C71,10.449,70.9,9.85,70.9,9.249z"/>
		<path fill="#F4F5F5" d="M82.1,6.149h-1.3v3.8c0,0.5-0.1,0.8-0.3,1.1c-0.2,0.2-0.5,0.301-0.8,0.301c-0.5,0-0.9-0.2-1.1-0.5
			c-0.2-0.301-0.4-0.9-0.4-1.601v-3.1h-1.3v6.2h1l0.2-0.801h0.1c0.2,0.301,0.4,0.5,0.7,0.7c0.3,0.2,0.7,0.2,1.1,0.2
			c0.9,0,1.6-0.3,1.9-1H82c0.2,0.3,0.4,0.5,0.8,0.7c0.4,0.2,0.7,0.3,1.1,0.3c0.7,0,1.3-0.2,1.6-0.6c0.3-0.4,0.5-0.9,0.5-1.7v-4h-1.3
			v3.8c0,0.5-0.1,0.8-0.3,1.1c-0.2,0.2-0.5,0.301-0.8,0.301c-0.5,0-0.9-0.2-1.1-0.5c-0.2-0.301-0.4-0.801-0.4-1.5V6.149z"/>
		<path fill="#F4F5F5" d="M90.5,6.049c-1,0-1.7,0.301-2.2,0.801c-0.5,0.6-0.8,1.3-0.8,2.3s0.3,1.8,0.8,2.399
			c0.5,0.601,1.2,0.9,2.1,0.9c0.8,0,1.5-0.2,1.9-0.7c0.5-0.5,0.7-1.2,0.7-2v-0.8h-4.1c0-0.6,0.2-1.1,0.5-1.4
			c0.3-0.3,0.7-0.5,1.3-0.5c0.4,0,0.7,0,1,0.101c0.3,0.1,0.7,0.2,1,0.3v-1c-0.3-0.2-0.6-0.3-1-0.3C91.3,6.049,90.9,6.049,90.5,6.049
			z M90.3,11.449c-0.4,0-0.7-0.1-1-0.4c-0.3-0.3-0.4-0.6-0.4-1.199h2.8c0,0.5-0.1,0.899-0.4,1.199
			C91,11.249,90.7,11.449,90.3,11.449z"/>
		<path fill="#F4F5F5" d="M96.5,6.049c-0.8,0-1.4,0.301-1.8,0.801c-0.5,0.6-0.7,1.3-0.7,2.3s0.2,1.8,0.7,2.399
			c0.5,0.601,1,0.801,1.8,0.801s1.4-0.301,1.9-0.9h0.1c-0.1,0.4-0.1,0.8-0.1,1v2.2h1.3v-8.5h-1l-0.3,0.8h-0.1
			C97.9,6.35,97.3,6.049,96.5,6.049z M96.8,7.049c0.5,0,0.9,0.2,1.2,0.5c0.3,0.301,0.4,0.801,0.4,1.5v0.2c0,0.8-0.1,1.3-0.4,1.7
			c-0.3,0.3-0.6,0.5-1.2,0.5c-0.5,0-0.8-0.2-1.1-0.6c-0.3-0.4-0.4-0.9-0.4-1.601s0.1-1.2,0.4-1.6C96,7.249,96.3,7.049,96.8,7.049z"
			/>
		<path fill="#F4F5F5" d="M101.4,13.949c0,0.2,0.1,0.4,0.2,0.5s0.3,0.2,0.5,0.2c0.2,0,0.4-0.101,0.5-0.2s0.2-0.3,0.2-0.5
			s-0.1-0.4-0.2-0.5s-0.3-0.2-0.5-0.2c-0.2,0-0.4,0.101-0.5,0.2S101.4,13.649,101.4,13.949z M102.8,6.149h-1.3v6.2h1.3V6.149z"/>
		<path fill="#F4F5F5" d="M106,9.35l0.7,0.899l1.9,2h1.5l-2.5-2.6l2.6-3.5h-1.5l-2,2.7L106,8.249v-2.1h-1.3v8.7h1.3v-4.2V9.35
			L106,9.35z"/>
		<path fill="#F4F5F5" d="M115.1,6.149l-0.3,0.8l0,0c-0.3-0.4-0.6-0.6-0.9-0.8c-0.3-0.101-0.7-0.2-1.2-0.2c-0.6,0-1.1,0.2-1.4,0.5
			c-0.3,0.3-0.5,0.8-0.5,1.4c0,0.6,0.2,1.1,0.7,1.399s1.2,0.5,2.2,0.5h1.1v0.3c0,0.4-0.1,0.7-0.3,0.9s-0.5,0.3-0.9,0.3
			c-0.3,0-0.6,0-0.9-0.1c-0.3-0.101-0.6-0.2-0.8-0.3l-0.4,0.899c0.3,0.2,0.7,0.3,1.1,0.4c0.4,0.1,0.8,0.1,1.1,0.1
			c0.8,0,1.4-0.2,1.8-0.5s0.6-0.899,0.6-1.6v-4H115.1z M113.1,7.049c0.5,0,0.9,0.101,1.1,0.4c0.2,0.3,0.4,0.6,0.4,1.1v0.5h-0.8
			c-0.6,0-1.1-0.1-1.3-0.3c-0.3-0.2-0.4-0.5-0.4-0.8s0.1-0.5,0.2-0.6C112.5,7.049,112.8,7.049,113.1,7.049z"/>
		<path fill="#F4F5F5" d="M119.1,6.149h-1.3v8.7h1.3V6.149z"/>
		<path fill="#F4F5F5" d="M-114.7-11.351l-3,8.7h-0.1c0.1-1.301,0.1-2.5,0.1-3.601v-5.1h-1.5v10.399h2.4l2.9-8.3l0,0l3,8.3h2.4
			v-10.399h-1.6v5.2c0,0.5,0,1.199,0,2c0,0.8,0,1.3,0.1,1.5h-0.1l-3.1-8.7H-114.7z"/>
		<path fill="#F4F5F5" d="M-100.3-11.351l-0.2,1h-0.1c-0.2-0.4-0.6-0.7-1-0.9s-0.9-0.3-1.5-0.3c-1,0-1.7,0.2-2.1,0.7
			c-0.4,0.5-0.7,1.2-0.7,2.2v5.199h1.7v-4.899c0-0.601,0.1-1.101,0.4-1.4c0.2-0.3,0.6-0.5,1.2-0.5c0.7,0,1.2,0.2,1.5,0.601
			c0.3,0.399,0.5,1.1,0.5,2.1v3.9h1.7v-7.9h-1.4V-11.351z M-104.7-1.451c0,0.301,0.1,0.5,0.2,0.601c0.2,0.1,0.4,0.2,0.6,0.2
			c0.3,0,0.5-0.101,0.6-0.2c0.1-0.101,0.2-0.4,0.2-0.601c0-0.3-0.1-0.5-0.2-0.6c-0.2-0.2-0.4-0.2-0.6-0.2c-0.2,0-0.4,0.101-0.6,0.2
			S-104.7-1.751-104.7-1.451z M-101.9-1.451c0,0.301,0.1,0.5,0.2,0.601c0.2,0.1,0.4,0.2,0.6,0.2c0.3,0,0.5-0.101,0.6-0.2
			c0.2-0.101,0.2-0.4,0.2-0.601c0-0.3-0.1-0.5-0.2-0.6c-0.2-0.1-0.4-0.2-0.6-0.2c-0.2,0-0.4,0.101-0.6,0.2
			C-101.8-1.951-101.9-1.751-101.9-1.451z"/>
		<path fill="#F4F5F5" d="M-89.7-11.351h-1.7v4.8c0,0.6-0.1,1.1-0.4,1.4c-0.3,0.3-0.6,0.399-1.2,0.399c-0.7,0-1.2-0.2-1.5-0.6
			c-0.3-0.4-0.5-1.101-0.5-2.101v-3.899h-1.7v11.1h1.7v-2.8c0-0.5,0-0.9-0.1-1.4h0.1c0.2,0.4,0.5,0.7,1,0.9c0.4,0.2,0.9,0.3,1.4,0.3
			c1.9,0,2.9-1,2.9-2.899V-11.351z"/>
		<path fill="#F4F5F5" d="M-83.9-11.551c-1.2,0-2.2,0.4-2.9,1.1c-0.7,0.7-1,1.7-1,3c0,1.301,0.3,2.301,1,3
			c0.7,0.7,1.5,1.101,2.6,1.101c1,0,1.9-0.3,2.5-0.9c0.6-0.6,0.9-1.5,0.9-2.6v-0.9h-5.3c0-0.8,0.2-1.399,0.6-1.8s0.9-0.6,1.6-0.6
			c0.5,0,0.9,0,1.3,0.1s0.8,0.2,1.3,0.4v-1.4c-0.4-0.2-0.8-0.3-1.2-0.4C-82.9-11.451-83.4-11.551-83.9-11.551z M-84.2-4.65
			c-0.5,0-1-0.2-1.3-0.5c-0.3-0.301-0.5-0.801-0.6-1.5h3.6c0,0.699-0.2,1.1-0.5,1.5C-83.3-4.851-83.7-4.65-84.2-4.65z"/>
		<path fill="#F4F5F5" d="M-72-11.351h-1.7v4.8c0,0.6-0.1,1.1-0.4,1.4c-0.3,0.3-0.6,0.399-1.2,0.399c-0.7,0-1.2-0.2-1.6-0.6
			c-0.3-0.4-0.5-1.101-0.5-2.101v-3.899h-1.7v7.899h1.3l0.2-1h0.1c0.2,0.4,0.6,0.7,1,0.9s0.9,0.3,1.5,0.3c1.9,0,2.8-1,2.8-2.899
			v-5.2H-72z"/>
		<path fill="#F4F5F5" d="M-67-11.551c-1,0-1.8,0.4-2.3,1.1c-0.6,0.7-0.8,1.7-0.8,3c0,1.301,0.3,2.301,0.8,3
			c0.6,0.7,1.3,1.101,2.3,1.101s1.8-0.4,2.4-1.101h0.1c-0.1,0.601-0.1,1-0.1,1.301v2.899h1.7v-11.1h-1.3l-0.3,1h-0.1
			C-65.2-11.15-66-11.551-67-11.551z M-66.6-10.15c0.7,0,1.2,0.199,1.5,0.6c0.3,0.4,0.5,1,0.5,1.9v0.199c0,1-0.2,1.7-0.5,2.101
			c-0.3,0.399-0.8,0.6-1.5,0.6c-0.6,0-1-0.2-1.4-0.7c-0.3-0.5-0.5-1.199-0.5-2c0-0.899,0.2-1.5,0.5-2S-67.2-10.15-66.6-10.15z"/>
		<path fill="#F4F5F5" d="M-60.7-1.451c0,0.301,0.1,0.5,0.2,0.7c0.2,0.2,0.4,0.2,0.7,0.2c0.3,0,0.5-0.1,0.7-0.2
			c0.2-0.2,0.2-0.399,0.2-0.7c0-0.3-0.1-0.5-0.2-0.699c-0.2-0.2-0.4-0.2-0.7-0.2c-0.3,0-0.5,0.1-0.7,0.2
			C-60.6-1.951-60.7-1.751-60.7-1.451z M-58.9-11.351h-1.7v7.899h1.7V-11.351z"/>
		<path fill="#F4F5F5" d="M-51.2-9.15c0-0.801-0.3-1.4-0.8-1.801c-0.5-0.399-1.4-0.6-2.4-0.6s-1.9,0.2-2.5,0.5v1.4
			c0.9-0.4,1.8-0.601,2.6-0.601c1,0,1.5,0.3,1.5,0.9c0,0.2-0.1,0.399-0.2,0.5c-0.1,0.1-0.3,0.3-0.6,0.399
			c-0.3,0.101-0.6,0.301-1.1,0.5c-0.9,0.4-1.5,0.7-1.8,1.101c-0.4,0.3-0.5,0.8-0.5,1.399c0,0.7,0.3,1.2,0.8,1.601
			c0.5,0.399,1.3,0.6,2.2,0.6s1.8-0.2,2.6-0.6l-0.5-1.3c-0.9,0.399-1.6,0.5-2.1,0.5c-0.9,0-1.3-0.301-1.3-0.801
			c0-0.199,0.1-0.5,0.3-0.6c0.2-0.2,0.7-0.4,1.5-0.7c0.7-0.3,1.1-0.5,1.4-0.7c0.3-0.199,0.5-0.5,0.7-0.699
			C-51.2-8.351-51.2-8.751-51.2-9.15z"/>
		<path fill="#F4F5F5" d="M-47.7-11.351h-1.7v11.1h1.7V-11.351z"/>
		<path fill="#F4F5F5" d="M-45.5-1.451c0,0.301,0.1,0.5,0.2,0.7c0.2,0.2,0.4,0.2,0.7,0.2c0.3,0,0.5-0.1,0.7-0.2
			c0.2-0.2,0.2-0.399,0.2-0.7c0-0.3-0.1-0.5-0.2-0.699c-0.2-0.2-0.4-0.2-0.7-0.2c-0.3,0-0.5,0.1-0.7,0.2
			C-45.4-1.951-45.5-1.751-45.5-1.451z M-43.7-11.351h-1.7v7.899h1.7V-11.351z"/>
		<path fill="#F4F5F5" d="M-39.7-7.251l0.9,1.2l2.4,2.5h1.9l-3.2-3.4l3.4-4.5h-2l-2.5,3.5l-0.9-0.8v-2.7h-1.7v11.101h1.7v-5.4
			V-7.251L-39.7-7.251z"/>
		<path fill="#F4F5F5" d="M-31.3-11.351H-33v11.1h1.7V-11.351z"/>
		<path fill="#F4F5F5" d="M-25.4-11.551c-1.2,0-2.2,0.4-2.9,1.1c-0.7,0.7-1,1.7-1,3c0,1.301,0.3,2.301,1,3
			c0.7,0.7,1.5,1.101,2.6,1.101c1,0,1.9-0.3,2.5-0.9c0.6-0.6,0.9-1.5,0.9-2.6v-0.9h-5.3c0-0.8,0.2-1.399,0.6-1.8s0.9-0.6,1.6-0.6
			c0.5,0,0.9,0,1.3,0.1s0.8,0.2,1.3,0.4v-1.4c-0.4-0.2-0.8-0.3-1.2-0.4C-24.4-11.451-24.9-11.551-25.4-11.551z M-25.7-4.65
			c-0.5,0-1-0.2-1.3-0.5c-0.3-0.301-0.5-0.801-0.6-1.5h3.6c0,0.699-0.2,1.1-0.5,1.5C-24.8-4.851-25.2-4.65-25.7-4.65z"/>
		<path fill="#F4F5F5" d="M-16.5-3.351c0.3,0,0.6,0,0.8-0.101l-0.2-1.6c-0.2,0.1-0.5,0.1-0.7,0.1c-0.7,0-1.2-0.199-1.6-0.699
			c-0.4-0.4-0.6-1-0.6-1.7v-4.101h-1.7v7.9h1.3l0.2-1.4h0.1c0.3,0.5,0.6,0.801,1,1.101C-17.4-3.551-17-3.351-16.5-3.351z"/>
		<path fill="#F4F5F5" d="M-14.3-1.451c0,0.301,0.1,0.5,0.2,0.7s0.4,0.2,0.7,0.2c0.3,0,0.5-0.1,0.7-0.2c0.2-0.2,0.2-0.399,0.2-0.7
			c0-0.3-0.1-0.5-0.2-0.699c-0.2-0.2-0.4-0.2-0.7-0.2c-0.3,0-0.5,0.1-0.7,0.2C-14.3-2.051-14.3-1.751-14.3-1.451z M-12.5-11.351
			h-1.7v7.899h1.7V-11.351z"/>
		<path fill="#F4F5F5" d="M-6.1-0.951H-3c1.4,0,2.5-0.199,3.1-0.6s1-1.1,1-2c-0.1-0.6-0.2-1.1-0.6-1.5s-0.8-0.7-1.4-0.8v-0.101
			c0.8-0.1,1.4-0.399,1.7-0.8c0.3-0.399,0.5-1,0.5-1.6c0-0.9-0.3-1.7-1-2.2c-0.7-0.5-1.6-0.8-2.7-0.8h-3.8v10.399H-6.1z M-4.4-5.251
			h1.6c0.7,0,1.2,0.101,1.6,0.3c0.4,0.2,0.5,0.601,0.5,1.2c0,0.5-0.2,0.8-0.5,1.101c-0.4,0.1-1,0.3-1.8,0.3h-1.5v-2.9H-4.4z
			 M-4.4-6.65v-3.301h1.8c0.7,0,1.3,0.101,1.6,0.4c0.4,0.3,0.5,0.7,0.5,1.3c0,0.5-0.2,0.9-0.5,1.2s-1,0.4-1.7,0.4H-4.4z"/>
		<path fill="#F4F5F5" d="M3.2-1.451c0,0.301,0.1,0.5,0.2,0.7s0.4,0.2,0.7,0.2c0.3,0,0.5-0.1,0.7-0.2c0.2-0.1,0.3-0.399,0.3-0.7
			c0-0.3-0.1-0.5-0.3-0.6c-0.1-0.2-0.3-0.3-0.6-0.3c-0.3,0-0.6,0.1-0.7,0.3S3.2-1.751,3.2-1.451z M5-11.351H3.3v7.899H5V-11.351z"/>
		<path fill="#F4F5F5" d="M9.1-11.351H7.4v11.1h1.7V-11.351z"/>
		<path fill="#F4F5F5" d="M11.3-1.451c0,0.301,0.1,0.5,0.2,0.7s0.4,0.2,0.7,0.2c0.3,0,0.5-0.1,0.7-0.2c0.2-0.2,0.2-0.399,0.2-0.7
			c0-0.3-0.1-0.5-0.2-0.699c-0.2-0.2-0.4-0.2-0.7-0.2c-0.3,0-0.5,0.1-0.7,0.2C11.3-2.051,11.3-1.751,11.3-1.451z M13.1-11.351h-1.7
			v7.899h1.7V-11.351z"/>
		<path fill="#F4F5F5" d="M22.2-11.351h-1.7v4.899c0,0.601-0.1,1.101-0.3,1.301c-0.2,0.3-0.6,0.399-1.1,0.399
			c-0.6,0-1.1-0.2-1.4-0.6c-0.3-0.4-0.5-1.101-0.5-2.101v-3.899h-1.7v7.899h1.3l0.2-1h0.1c0.2,0.4,0.5,0.7,1,0.9s0.9,0.3,1.4,0.3
			c1.2,0,2-0.399,2.4-1.2H22c0.2,0.4,0.6,0.7,1,0.9s0.9,0.3,1.5,0.3c0.9,0,1.6-0.2,2.1-0.7c0.4-0.5,0.6-1.199,0.6-2.199v-5.101h-1.7
			v4.9c0,0.6-0.1,1.1-0.3,1.3c-0.2,0.3-0.6,0.4-1.1,0.4c-0.7,0-1.1-0.2-1.4-0.601c-0.3-0.399-0.5-1-0.5-1.899V-11.351z"/>
		<path fill="#F4F5F5" d="M34.8-9.15c0-0.801-0.3-1.4-0.8-1.801c-0.5-0.399-1.4-0.6-2.4-0.6s-1.9,0.2-2.5,0.5v1.4
			c0.9-0.4,1.8-0.601,2.6-0.601c1,0,1.5,0.3,1.5,0.9c0,0.2-0.1,0.399-0.2,0.5c-0.1,0.1-0.3,0.3-0.6,0.399
			c-0.3,0.101-0.6,0.301-1.1,0.5c-0.9,0.4-1.5,0.7-1.8,1.101c-0.4,0.3-0.5,0.8-0.5,1.399c0,0.7,0.3,1.2,0.8,1.601
			c0.5,0.399,1.3,0.6,2.2,0.6s1.8-0.2,2.6-0.6l-0.5-1.3c-0.9,0.399-1.6,0.5-2.1,0.5c-0.9,0-1.3-0.301-1.3-0.801
			c0-0.199,0.1-0.5,0.3-0.6s0.7-0.4,1.5-0.7c0.7-0.3,1.1-0.5,1.4-0.7c0.3-0.199,0.5-0.5,0.7-0.699C34.8-8.351,34.8-8.751,34.8-9.15z
			"/>
		<path fill="#F4F5F5" d="M40-11.551c-1.2,0-2.2,0.4-2.9,1.1c-0.7,0.7-1,1.7-1,3c0,1.301,0.3,2.301,1,3c0.7,0.7,1.5,1.101,2.6,1.101
			c1,0,1.9-0.3,2.5-0.9c0.6-0.6,0.9-1.5,0.9-2.6v-0.9h-5.2c0-0.8,0.2-1.399,0.6-1.8s0.9-0.6,1.6-0.6c0.5,0,0.9,0,1.3,0.1
			s0.8,0.2,1.3,0.4v-1.4c-0.4-0.2-0.8-0.3-1.2-0.4C41-11.451,40.5-11.551,40-11.551z M39.7-4.65c-0.5,0-1-0.2-1.3-0.5
			c-0.3-0.301-0.5-0.801-0.6-1.5h3.6c0,0.699-0.2,1.1-0.5,1.5C40.6-4.851,40.2-4.65,39.7-4.65z"/>
		<path fill="#F4F5F5" d="M46.6-11.351H45v11.1h1.7v-11.1H46.6z"/>
		<path fill="#F4F5F5" d="M56.6-11.351h-1.7v9h-3.1v1.5h7.8v-1.5h-3.1v-9H56.6z"/>
		<path fill="#F4F5F5" d="M68.1-7.451c0-1.3-0.3-2.3-1-3c-0.7-0.699-1.6-1.1-2.8-1.1c-0.7,0-1.4,0.2-2,0.5c-0.6,0.3-1,0.8-1.3,1.4
			c-0.3,0.6-0.5,1.3-0.5,2.199c0,1.301,0.3,2.301,1,3c0.7,0.7,1.6,1.101,2.8,1.101c1.1,0,2-0.4,2.7-1.101
			C67.7-5.251,68.1-6.15,68.1-7.451z M62.3-7.451c0-1.8,0.7-2.699,2-2.699c1.3,0,2,0.899,2,2.699c0,1.801-0.7,2.7-2,2.7
			c-0.7,0-1.2-0.2-1.5-0.7C62.5-5.851,62.3-6.551,62.3-7.451z"/>
		<path fill="#F4F5F5" d="M74-11.551c-1,0-1.8,0.4-2.3,1.1h-0.1c0.1-0.699,0.1-1.1,0.1-1.199v-3.2H70v11.399h1.4
			c0-0.1,0.1-0.5,0.2-1.1h0.1c0.5,0.8,1.3,1.2,2.3,1.2s1.7-0.4,2.3-1.101c0.6-0.699,0.8-1.699,0.8-3c0-1.3-0.3-2.3-0.8-3
			C75.7-11.15,75-11.551,74-11.551z M73.6-4.751c-0.7,0-1.2-0.2-1.5-0.6c-0.3-0.4-0.5-1-0.5-1.9v-0.2c0-1,0.2-1.699,0.5-2.1
			c0.3-0.4,0.8-0.6,1.5-0.6c0.6,0,1,0.199,1.3,0.699c0.3,0.5,0.5,1.2,0.5,2c0,0.9-0.2,1.601-0.5,2C74.6-4.951,74.2-4.751,73.6-4.751
			z"/>
		<path fill="#F4F5F5" d="M80.8-11.351h-1.7v11.1h1.7V-11.351z"/>
		<path fill="#F4F5F5" d="M88.1-11.351l-0.3,1.1h-0.1c-0.4-0.5-0.8-0.8-1.1-1c-0.3-0.2-0.9-0.3-1.5-0.3c-0.8,0-1.4,0.2-1.8,0.6
			c-0.4,0.4-0.7,1-0.7,1.801c0,0.8,0.3,1.399,0.9,1.8c0.6,0.399,1.5,0.6,2.8,0.7h1.4v0.399c0,0.5-0.1,0.9-0.4,1.101
			c-0.2,0.199-0.6,0.399-1.1,0.399c-0.4,0-0.8-0.1-1.2-0.2c-0.4-0.1-0.7-0.3-1.1-0.399l-0.5,1.3c0.4,0.2,0.9,0.4,1.4,0.5
			s1,0.2,1.4,0.2c1,0,1.8-0.2,2.3-0.7s0.8-1.1,0.8-2.1v-5.301h-1.2V-11.351z M85.6-10.251c0.6,0,1.1,0.2,1.5,0.5s0.6,0.8,0.6,1.4
			v0.7h-1c-0.8,0-1.4-0.2-1.7-0.4c-0.4-0.2-0.5-0.6-0.5-1.1c0-0.4,0.1-0.601,0.3-0.801C84.9-10.15,85.2-10.251,85.6-10.251z"/>
		<path fill="#F4F5F5" d="M98.6-11.351h-1.7v4.8c0,0.6-0.1,1.1-0.4,1.4c-0.2,0.3-0.6,0.399-1.2,0.399c-0.7,0-1.2-0.2-1.6-0.6
			c-0.3-0.4-0.5-1.101-0.5-2.101v-3.899h-1.7v7.899h1.3l0.2-1h0.1c0.2,0.4,0.6,0.7,1,0.9s0.9,0.3,1.5,0.3c1.9,0,2.8-1,2.8-2.899
			v-5.2H98.6z"/>
		<path fill="#F4F5F5" d="M103.8-10.15c0.4,0,0.8,0.1,1.2,0.199v-1.3c-0.2-0.1-0.4-0.1-0.7-0.2c-0.3-0.1-0.6-0.1-0.9-0.1
			c-1.6,0-2.4,0.8-2.4,2.5v4.2h-1v0.8l1.2,0.6l0.6,1.7h1v-1.8h2.2v-1.3h-2.2v-4.2c0-0.4,0.1-0.7,0.3-0.9
			C103.2-10.051,103.5-10.15,103.8-10.15z"/>
		<path fill="#F4F5F5" d="M108.3-11.351h-1.7v7.899h1.7V-11.351z"/>
		<path fill="#F4F5F5" d="M116-9.15c0-0.801-0.3-1.4-0.8-1.801c-0.5-0.399-1.4-0.6-2.4-0.6s-1.9,0.2-2.5,0.5v1.4
			c0.9-0.4,1.8-0.601,2.6-0.601c1,0,1.5,0.3,1.5,0.9c0,0.2-0.1,0.399-0.2,0.5c-0.1,0.1-0.3,0.3-0.6,0.399
			c-0.3,0.101-0.6,0.301-1.1,0.5c-0.9,0.4-1.5,0.7-1.8,1.101c-0.3,0.399-0.5,0.8-0.5,1.399c0,0.7,0.3,1.2,0.8,1.601
			c0.5,0.399,1.3,0.6,2.2,0.6c0.9,0,1.8-0.2,2.6-0.6l-0.5-1.3c-0.9,0.399-1.6,0.5-2.1,0.5c-0.9,0-1.3-0.301-1.3-0.801
			c0-0.199,0.1-0.5,0.3-0.6c0.2-0.1,0.7-0.4,1.5-0.7c0.7-0.3,1.1-0.5,1.4-0.7c0.3-0.199,0.5-0.5,0.7-0.699
			C116-8.351,116-8.751,116-9.15z"/>
		<path fill="#F4F5F5" d="M119.5-11.351h-1.7v7.899h1.7V-11.351z"/>
	</g>
</symbol>
<g>
	<g>
		<g>
			<path fill="#F4F5F5" d="M415.523,479.688c4.689-4.195,8.39-8.883,11.351-14.064c4.935-8.143,7.402-17.765,7.402-27.881
				c0-15.791-5.182-29.362-15.298-40.712c-11.104-12.336-26.154-18.505-44.412-18.505h-61.931c-6.909,0-13.077,1.727-18.259,4.688
				c-5.182-2.961-11.35-4.688-18.259-4.688h-61.93c-18.258,0-33.309,6.415-44.412,18.505
				c-10.363,11.597-15.298,25.167-15.298,40.958c0,10.363,2.467,19.739,7.402,27.635c0,0.246,0.246,0.246,0.246,0.493H36.292
				v-52.555c0-1.974,0.493-3.454,1.234-4.194c0.493-0.74,1.727-1.727,4.44-1.727l98.941-0.247c4.195,0,8.142-1.48,11.103-4.441
				c2.715-2.714,4.195-6.168,4.195-9.87c0-3.948-1.48-7.402-4.44-10.362c-2.962-2.468-6.663-3.948-10.857-3.948l-101.901,0.247
				c-10.363,0-18.999,3.454-24.92,10.609c-5.429,6.168-7.896,13.817-7.896,22.7L6.436,562.59c0,8.883,2.715,16.531,7.896,22.699
				c6.167,6.908,14.557,10.363,24.92,10.363h105.356c4.44,0,8.388-1.727,11.349-4.441c2.715-2.714,4.195-6.168,4.195-9.869
				c0-3.948-1.48-7.401-4.441-10.363c-2.96-2.467-6.663-3.948-11.103-3.948l-102.643,0.247c-2.713,0-3.947-0.739-4.194-1.479
				c-0.493-0.494-1.233-1.728-1.233-4.194v-66.619h121.393c-0.493,0.493-0.74,1.233-1.232,1.728
				c-7.156,10.116-10.857,21.959-10.857,35.282c0,17.025,5.429,31.829,16.285,43.673c12.09,13.324,28.375,20.232,48.607,20.232
				h66.372c6.908,0,13.077-1.727,18.258-4.688c5.181,2.962,11.35,4.688,18.258,4.688h66.372c20.231,0,36.517-6.663,48.359-20.232
				c10.61-11.844,16.285-26.647,16.285-43.673c0-13.323-3.701-25.166-11.104-35.282
				C428.354,489.803,422.431,484.375,415.523,479.688z M373.084,400.731v6.662c9.871,0,17.271,2.961,22.7,9.129
				c5.182,5.428,7.896,12.583,7.896,21.219c0,8.142-2.468,15.05-7.896,20.973c-5.676,6.414-13.076,9.375-22.7,9.375h-62.916v-54.528
				c0-1.727,0.492-3.207,1.232-4.194c0.494-0.74,1.728-1.727,4.441-1.727h57.242V400.731L373.084,400.731z M377.28,495.972v-6.662
				l0,0V495.972c11.35,0,19.985,3.453,26.647,10.856c6.169,6.661,9.129,14.804,9.129,24.674c0,9.869-2.96,17.765-8.636,24.426
				c-6.415,7.155-14.804,10.857-25.907,10.857h-62.918c-2.713,0-3.947-0.741-4.194-1.481c-0.493-0.493-1.232-1.727-1.232-4.194
				v-65.138H377.28z M278.831,561.356c0,2.467-0.493,3.454-1.233,4.194c-0.494,0.74-1.728,1.727-4.441,1.727H210.24
				c-10.857,0-19.246-3.454-25.908-10.855c-5.921-6.663-8.635-14.559-8.882-24.428c0-9.869,2.961-17.764,9.129-24.674
				c6.661-7.401,15.545-10.855,26.648-10.855h67.358L278.831,561.356z M277.352,408.874c0.74,0.987,1.234,2.467,1.234,4.194v54.528
				h-62.918c-9.622,0-17.024-2.96-22.699-9.376c-5.428-5.675-7.895-12.583-7.895-20.726c0-8.636,2.467-15.298,7.895-21.219
				c5.428-6.168,12.83-9.129,22.699-9.129h57.242v-6.662l0,0v6.662C275.87,407.394,276.858,408.133,277.352,408.874z
				 M39.006,589.483L39.006,589.483L39.006,589.483L39.006,589.483z"/>
			<path fill="#F4F5F5" d="M586.758,382.473c-2.961-2.714-6.663-3.948-11.104-3.948l-133.483,0.247
				c-5.429,0-8.39,2.221-10.116,4.195c-1.974,2.467-3.208,5.921-3.208,10.116c0,10.363,6.908,14.064,13.324,14.064h52.802
				l0.245,177.896c0,4.193,1.729,8.142,4.689,11.35c2.96,2.468,6.661,3.947,10.363,3.947l0,0c3.947,0,7.4-1.479,10.361-3.947
				c3.208-2.961,4.935-6.662,4.935-11.35l-0.246-177.896h50.087c4.442,0,8.39-1.48,11.104-4.194
				c2.961-2.714,4.688-6.168,4.688-10.116C591.446,388.642,589.719,384.94,586.758,382.473z"/>
		</g>
	</g>
	
		<use xlink:href="#New_Symbol_1"  width="239" height="29.7" id="XMLID_1_" x="-119.5" y="-14.851" transform="matrix(2.4328 0 0 -2.4328 294.7932 331.4434)" overflow="visible"/>
</g>
</svg>
